<svg xmlns="http://www.w3.org/2000/svg" width="60.043" height="53.828" viewBox="0 0 60.043 53.828">
  <path id="cart-shopping" d="M0,2.523A2.517,2.517,0,0,1,2.523,0H7.307a5.888,5.888,0,0,1,5.32,3.364H55.836a4.2,4.2,0,0,1,4.058,5.3l-4.31,16.012a7.581,7.581,0,0,1-7.307,5.6H17.946l.568,3a2.533,2.533,0,0,0,2.481,2.05H51.3a2.523,2.523,0,0,1,0,5.046H20.995a7.561,7.561,0,0,1-7.433-6.15L8.137,5.73a.836.836,0,0,0-.831-.683H2.523A2.517,2.517,0,0,1,0,2.523ZM13.457,48.782A5.046,5.046,0,1,1,18.5,53.828,5.046,5.046,0,0,1,13.457,48.782Zm35.325-5.046a5.046,5.046,0,1,1-5.046,5.046A5.046,5.046,0,0,1,48.782,43.735Z" fill="aliceblue"/>
</svg>
