<svg xmlns="http://www.w3.org/2000/svg" width="100" height="133.333" viewBox="0 0 100 133.333">
  <path id="file-image" d="M16.667,120.833a4.179,4.179,0,0,1-4.167-4.167v-100A4.179,4.179,0,0,1,16.667,12.5H58.333V33.333a8.324,8.324,0,0,0,8.333,8.333H87.5v75a4.179,4.179,0,0,1-4.167,4.167ZM16.667,0A16.682,16.682,0,0,0,0,16.667v100a16.682,16.682,0,0,0,16.667,16.667H83.333A16.682,16.682,0,0,0,100,116.667V40.234a16.672,16.672,0,0,0-4.87-11.8L71.537,4.87A16.612,16.612,0,0,0,59.766,0Zm25,66.667A8.333,8.333,0,1,0,33.333,75,8.333,8.333,0,0,0,41.667,66.667ZM59.688,78.88a4.186,4.186,0,0,0-6.875,0L42.057,94.427l-3.1-4.974a4.188,4.188,0,0,0-7.083,0L21.458,106.12A4.156,4.156,0,0,0,25,112.474H75a4.166,4.166,0,0,0,3.7-2.24,4.121,4.121,0,0,0-.26-4.3L59.688,78.854Z" fill="#a2a2a2"/>
</svg>
